<svg xmlns="http://www.w3.org/2000/svg" xmlns:xlink="http://www.w3.org/1999/xlink" width="119.999" height="31" viewBox="0 0 119.999 31" class="__svg-logo">
  <g transform="translate(0 -21)">
    <path class="text" d="M9.091,4.519A7.936,7.936,0,0,1,3.379,2.588,7.477,7.477,0,0,1,1.2-2.694L1.17-4.1,1.2-5.5a7.431,7.431,0,0,1,2.209-5.266,7.919,7.919,0,0,1,5.68-1.947,7.919,7.919,0,0,1,5.68,1.947A7.431,7.431,0,0,1,16.98-5.5q.032.383.032,1.4t-.032,1.4A7.477,7.477,0,0,1,14.8,2.588,7.936,7.936,0,0,1,9.091,4.519Zm0-3.16A3.221,3.221,0,0,0,11.679.29a5.089,5.089,0,0,0,1.01-3.144q.032-.319.032-1.245t-.032-1.245a5.089,5.089,0,0,0-1.01-3.144A3.221,3.221,0,0,0,9.091-9.556,3.221,3.221,0,0,0,6.5-8.487a5.089,5.089,0,0,0-1.01,3.144L5.462-4.1l.032,1.245A5.089,5.089,0,0,0,6.5.29,3.221,3.221,0,0,0,9.091,1.359ZM19.726,4.2a.726.726,0,0,1-.536-.223.743.743,0,0,1-.221-.543V-17.694a.73.73,0,0,1,.221-.559.755.755,0,0,1,.536-.207h2.619a.742.742,0,0,1,.552.207.76.76,0,0,1,.205.559V3.434a.773.773,0,0,1-.205.543.713.713,0,0,1-.552.223Zm12.213.319A9.753,9.753,0,0,1,27.962,3.8,6.2,6.2,0,0,1,25.58,2.109,2.9,2.9,0,0,1,24.806.434a.642.642,0,0,1,.221-.511.749.749,0,0,1,.5-.191h2.493a.6.6,0,0,1,.473.223q.126.1.663.574a3.88,3.88,0,0,0,1.262.8,4.339,4.339,0,0,0,1.609.287A3.881,3.881,0,0,0,34.116,1.1a1.579,1.579,0,0,0,.82-1.4,1.588,1.588,0,0,0-.363-1.085,3.14,3.14,0,0,0-1.31-.75,22.768,22.768,0,0,0-2.809-.718,8.377,8.377,0,0,1-3.96-1.755,4.056,4.056,0,0,1-1.278-3.128,4.261,4.261,0,0,1,.757-2.41A5.467,5.467,0,0,1,28.23-12a8.223,8.223,0,0,1,3.582-.718,8.971,8.971,0,0,1,3.661.686A6.506,6.506,0,0,1,37.824-10.4a2.744,2.744,0,0,1,.8,1.676.679.679,0,0,1-.205.495.664.664,0,0,1-.489.207H35.6a.886.886,0,0,1-.536-.223,8.1,8.1,0,0,1-.694-.606,3.508,3.508,0,0,0-1.1-.7,3.941,3.941,0,0,0-1.483-.255,2.863,2.863,0,0,0-1.815.511,1.626,1.626,0,0,0-.647,1.34,1.5,1.5,0,0,0,.316.989,3.021,3.021,0,0,0,1.231.734,17.305,17.305,0,0,0,2.745.7A8.612,8.612,0,0,1,37.95-3.651,4.2,4.2,0,0,1,39.26-.524a4.314,4.314,0,0,1-1.925,3.638A9.021,9.021,0,0,1,31.938,4.519ZM48,4.519a7.544,7.544,0,0,1-5.57-2.059,8.229,8.229,0,0,1-2.193-5.793l-.032-.8.032-.8a8.273,8.273,0,0,1,2.225-5.713A7.469,7.469,0,0,1,48-12.715a7.29,7.29,0,0,1,5.759,2.3A8.9,8.9,0,0,1,55.8-4.29v.67a.743.743,0,0,1-.221.543.764.764,0,0,1-.568.223H44.53V-2.6A5.091,5.091,0,0,0,45.492.354a2.928,2.928,0,0,0,2.477,1.2,3.607,3.607,0,0,0,3-1.468,1.874,1.874,0,0,1,.458-.447,1.109,1.109,0,0,1,.521-.1H54.66a.728.728,0,0,1,.489.176.546.546,0,0,1,.205.431,2.983,2.983,0,0,1-.9,1.8,7.449,7.449,0,0,1-2.572,1.8A9.237,9.237,0,0,1,48,4.519ZM51.5-5.534v-.1a4.669,4.669,0,0,0-.931-3.032A3.128,3.128,0,0,0,48-9.811a3.084,3.084,0,0,0-2.556,1.149A4.724,4.724,0,0,0,44.53-5.63v.1ZM58.32,4.2a.726.726,0,0,1-.536-.223.743.743,0,0,1-.221-.543V-11.6a.8.8,0,0,1,.221-.559.7.7,0,0,1,.536-.239h2.556a.764.764,0,0,1,.568.223.782.782,0,0,1,.221.574v1.309a4.987,4.987,0,0,1,1.909-1.564A6.115,6.115,0,0,1,66.21-12.4H67.5a.742.742,0,0,1,.552.207.76.76,0,0,1,.205.559v2.3a.773.773,0,0,1-.205.543.713.713,0,0,1-.552.223H65.042a3.135,3.135,0,0,0-2.335.862,3.212,3.212,0,0,0-.852,2.362V3.434a.743.743,0,0,1-.221.543.764.764,0,0,1-.568.223Zm15.337.319a6.639,6.639,0,0,1-2.951-.654,5.374,5.374,0,0,1-2.114-1.771,4.225,4.225,0,0,1-.773-2.457,4.227,4.227,0,0,1,1.736-3.511A10.351,10.351,0,0,1,74.32-5.694l4.323-.638V-7a2.881,2.881,0,0,0-.694-2.106,3.051,3.051,0,0,0-2.241-.7,3.18,3.18,0,0,0-1.688.4,5.524,5.524,0,0,0-1.026.782q-.379.415-.5.543a.478.478,0,0,1-.473.383h-2.43A.692.692,0,0,1,69.1-7.9a.665.665,0,0,1-.205-.511,3.472,3.472,0,0,1,.773-1.819,5.847,5.847,0,0,1,2.288-1.755,8.789,8.789,0,0,1,3.787-.734q3.724,0,5.428,1.691a5.974,5.974,0,0,1,1.7,4.436V3.434a.773.773,0,0,1-.205.543.713.713,0,0,1-.552.223H79.559a.726.726,0,0,1-.536-.223.743.743,0,0,1-.221-.543V2.189a5.166,5.166,0,0,1-1.972,1.676A6.914,6.914,0,0,1,73.657,4.519ZM74.73,1.487A3.766,3.766,0,0,0,77.57.338a4.651,4.651,0,0,0,1.1-3.351v-.67l-3.156.511a6.823,6.823,0,0,0-2.761.926,1.861,1.861,0,0,0-.931,1.564,1.821,1.821,0,0,0,.852,1.6A3.583,3.583,0,0,0,74.73,1.487Z" transform="translate(37.127 43.29)" fill="#66C7EA"></path>
    <g transform="translate(0 21)">
      <circle class="a" cx="14.5" cy="14.5" r="14.5" transform="translate(1 0)" fill="#FFF"></circle>
      <g transform="translate(6.783 5.106)">
        <path class="b" d="M25.785,35.13c-9.3,0-8.935,8.193-8.935,8.193,0,4.1,3.336,6.587,4.994,8.193.777.751,2.912,3.561,3.941,3.561s3.166-2.813,3.941-3.564c1.66-1.605,4.994-4.088,4.994-8.193C34.716,43.323,35.085,35.13,25.785,35.13Z" transform="translate(-16.849 -34.654)" fill="#66C7EA"></path>
        <path class="c" d="M44.773,39.476c0,3.86-2.889,7.791-3.962,9.412S39.564,52,38.659,52.573a.744.744,0,0,1-.744,0C37,52,36.839,50.509,35.762,48.892S31.79,43.34,31.8,39.48c0-4.494,3.08-7.23,6.489-7.23S44.768,34.982,44.773,39.476Z" transform="translate(-29.348 -32.247)" fill="#66C7EA"></path>
        <path class="d" d="M54.6,39.46c0,3.86-1.612,7.791-2.213,9.412s-.627,3.116-1.132,3.684a.437.437,0,0,1-.554,0c-.5-.568-.53-2.063-1.13-3.684S47.358,43.32,47.36,39.46c0-4.494,1.719-7.23,3.622-7.23S54.6,34.965,54.6,39.46Z" transform="translate(-42.045 -32.23)" fill="#B6E5F5"></path>
      </g>
    </g>
  </g>
</svg>