<svg xmlns="http://www.w3.org/2000/svg" xmlns:xlink="http://www.w3.org/1999/xlink" viewBox="0 0 440.43 120.66"><defs><style>.cls-1{fill:#FFF;}.cls-2{fill:url(#linear-gradient);}</style>
<linearGradient id="linear-gradient" x1="-1.07" y1="118.85" x2="46.7" y2="42.42" gradientUnits="userSpaceOnUse"><stop offset="0" stop-color="#2dbbc0"/><stop offset="0.08" stop-color="#36b4c5"/><stop offset="0.48" stop-color="#5a94d9"/><stop offset="0.8" stop-color="#7180e5"/><stop offset="1" stop-color="#7979ea"/>
</linearGradient></defs><title>popaketAsset 11</title>
<g id="Layer_2" data-name="Layer 2">
<g id="Layer_1-2" data-name="Layer 1">
<path class="cls-1" d="M186.63,28.42a23.22,23.22,0,1,0,20.72,20.72A23.22,23.22,0,0,0,186.63,28.42ZM186,64.67a13.27,13.27,0,1,1,11.48-11.84A13.28,13.28,0,0,1,186,64.67Z"/>
<path class="cls-1" d="M236.88,28.22A21.32,21.32,0,0,0,224,32.58V28.22H214V82.38H224V70.29a21.32,21.32,0,0,0,12.9,4.36c12.21,0,22.1-10.4,22.1-23.22S249.09,28.22,236.88,28.22Zm0,36.48c-7,0-12.64-5.94-12.64-13.27s5.66-13.26,12.64-13.26,12.63,5.94,12.63,13.26S243.85,64.7,236.88,64.7Z"/><path class="cls-1" d="M132.23,28.22a21.31,21.31,0,0,0-12.89,4.36V28.22h-10V82.38h10V70.29a21.31,21.31,0,0,0,12.89,4.36c12.21,0,22.11-10.4,22.11-23.22S144.44,28.22,132.23,28.22Zm0,36.48c-7,0-12.63-5.94-12.63-13.27s5.65-13.26,12.63-13.26,12.63,5.94,12.63,13.26S139.21,64.7,132.23,64.7Z"/><path class="cls-1" d="M301,28.22v4.42a21.6,21.6,0,0,0-13.08-4.42c-12.31,0-22.3,10.4-22.3,23.21s10,23.22,22.3,23.22A21.6,21.6,0,0,0,301,70.23v4.42h9.95V28.22ZM287.91,64.7a13,13,0,0,1-12.74-13.27,12.75,12.75,0,1,1,25.47,0A13,13,0,0,1,287.91,64.7Z"/><polygon class="cls-1" points="358.04 74.72 345.77 74.72 335.84 58.09 330.98 62.89 330.98 71.78 330.92 71.78 330.92 74.72 320.97 74.72 320.97 20.56 330.98 20.56 330.98 50.88 345.77 29.49 357.84 29.49 343.31 51.66 358.04 74.72"/><path class="cls-1" d="M404,55.15H373c1.09,5.6,6.7,9,12.66,9a12.34,12.34,0,0,0,9.8-4.35l6,7.53c-3.63,4.76-10.19,7.27-17.23,7.27-10.56,0-22.66-9.78-22.66-23.16S372,28.3,383.89,28.3c11.48,0,20.34,8.86,20.34,23.33C404.23,52.64,404.08,54.06,404,55.15Zm-31.18-7.61h20.72c-.8-5.69-4.5-9.37-9.58-9.37A11.12,11.12,0,0,0,372.83,47.54Z"/><path class="cls-1" d="M440.43,72.33a15.68,15.68,0,0,1-8.94,2.39c-8.94,0-14.15-4.57-14.15-13.58V43.48h-6.65V32.61h6.65v-12h11V32.61h10.24V43.48H428.32V61c0,3.24,1.76,5,4.72,5a7.46,7.46,0,0,0,4.44-1.41Z"/><path class="cls-2" d="M68.09,6.36A45.11,45.11,0,0,0,7.48,20.08c-.43.63-.83,1.29-1.23,2A45,45,0,0,0,0,41.91v8.78c9-6.1,19.65-10.56,29.47-11.94V37.26a3.69,3.69,0,0,1,0-.58,4.49,4.49,0,0,1,2.22-3.34L34,32a3.53,3.53,0,0,1,3.53,0l12.32,7.14a4.52,4.52,0,0,1,2.26,3.92v1.46l5.06-2.92V40.18a4.52,4.52,0,0,0-2.26-3.92l-2.51-1.45-.29-.16L42.3,29a1,1,0,0,1,0-1.76l1.28-.74a4.56,4.56,0,0,1,4.52,0l4,2.31,5.06,2.92,2.79,1.61a4.53,4.53,0,0,1,2.23,3.34,5.46,5.46,0,0,1,0,.58V50.93a4.53,4.53,0,0,1-2.27,3.92L48.1,61.69a4.51,4.51,0,0,1-4.52,0L31.73,54.85a4.52,4.52,0,0,1-2.26-3.91V47.71C14.42,53.5,2.85,64.16,0,76.56v44.1l16.3-8.83,3.22-1.74L69.27,83.17a45.07,45.07,0,0,0,14.5-15c.39-.67.77-1.34,1.13-2A45.11,45.11,0,0,0,68.09,6.36Z"/></g></g></svg>