<svg xmlns="http://www.w3.org/2000/svg" width="130" height="20" viewBox="0 0 130 20" fill="none">
<path d="M6.76781 12.9297V18.8895C6.76781 19.0915 6.6668 19.2935 6.56579 19.3945C6.46477 19.4955 6.26275 19.5965 6.06073 19.5965H0.707085C0.505061 19.5965 0.303037 19.4955 0.202024 19.3945C0.101012 19.2935 0 19.0915 0 18.8895V1.41436C0 1.21234 0.101012 1.01031 0.202024 0.9093C0.303037 0.808287 0.505061 0.707275 0.707085 0.707275H12.8285C14.9498 0.707275 16.566 1.21234 17.8791 2.12144C19.1923 3.13157 19.8994 4.44472 19.8994 6.06092C19.8994 7.87913 19.2933 9.19229 18.1822 10.1014C17.8791 10.3034 17.5761 10.5054 17.2731 10.7075C16.869 10.9095 16.465 11.0105 16.0609 11.2125C16.566 11.5156 16.97 11.8186 17.3741 12.1216C17.7781 12.4247 18.0812 12.7277 18.2832 13.1318L21.6166 18.6874C21.8186 18.9905 21.8186 19.1925 21.6166 19.4955C21.5156 19.6975 21.2125 19.7986 20.9095 19.7986H14.7478C14.6468 19.7986 14.4447 19.7986 14.3437 19.6975C14.2427 19.5965 14.1417 19.4955 14.0407 19.3945L10.9093 13.6368C10.8083 13.5358 10.8083 13.4348 10.7073 13.4348C10.6063 13.3338 10.6063 13.3338 10.5053 13.2328C10.4042 13.1318 9.89919 13.1318 8.99008 13.1318H6.76781V12.9297ZM6.6668 5.05079V8.68723H9.59615C10.8083 8.68723 11.7174 8.58622 12.3235 8.28318C12.9295 7.98015 13.2326 7.47509 13.2326 6.768C13.2326 6.16193 13.0306 5.75788 12.5255 5.45484C12.0204 5.15181 11.4144 5.05079 10.5053 5.05079H6.6668Z" fill="#FFF"/>
<path d="M23.5357 19.6975C23.3337 19.6975 23.1317 19.5965 23.0306 19.4955C22.9296 19.3945 22.8286 19.1925 22.8286 18.9905V1.41436C22.8286 1.21234 22.9296 1.01031 23.0306 0.9093C23.1317 0.808287 23.3337 0.707275 23.5357 0.707275H37.6774C37.8794 0.707275 38.0814 0.808287 38.1825 0.9093C38.2835 1.01031 38.3845 1.21234 38.3845 1.41436V4.94978C38.3845 5.15181 38.2835 5.35383 38.1825 5.45484C38.0814 5.55586 37.8794 5.65687 37.6774 5.65687H29.4954V7.5761H36.4652C36.6673 7.5761 36.8693 7.67711 36.9703 7.77812C37.0713 7.87913 37.1723 8.08116 37.1723 8.28318V11.8186C37.1723 12.0206 37.0713 12.2227 36.9703 12.3237C36.8693 12.4247 36.6673 12.5257 36.4652 12.5257H29.4954V14.5459H38.2835C38.4855 14.5459 38.6875 14.6469 38.7885 14.748C38.8895 14.849 38.9905 15.051 38.9905 15.253V18.7884C38.9905 18.9905 38.8895 19.1925 38.7885 19.2935C38.6875 19.3945 38.4855 19.4955 38.2835 19.4955H23.5357V19.6975Z" fill="#FFF"/>
<path d="M53.3343 1.41381C53.3343 1.21179 53.4353 1.00976 53.5364 0.908749C53.6374 0.807737 53.8394 0.706725 54.0414 0.706725H58.991C59.193 0.706725 59.3951 0.807737 59.4961 0.908749C59.5971 1.00976 59.6981 1.21179 59.6981 1.41381V13.7373C59.6981 16.0606 58.789 17.7778 56.9708 18.6869C55.3546 19.596 52.9303 20 49.7989 20C46.5665 20 44.1422 19.596 42.627 18.6869C40.9098 17.6768 40.0007 15.9595 40.0007 13.4342V1.3128C40.0007 1.11077 40.1017 0.908749 40.2028 0.807737C40.3038 0.706725 40.5058 0.605713 40.7078 0.605713H45.6574C45.8594 0.605713 46.0615 0.706725 46.1625 0.807737C46.2635 0.908749 46.3645 1.11077 46.3645 1.3128V11.313C46.3645 12.4241 46.6675 13.2322 47.1726 13.7373C47.6777 14.2423 48.5868 14.4444 49.7989 14.4444C51.0111 14.4444 51.8191 14.2423 52.3242 13.7373C52.8293 13.2322 53.1323 12.4241 53.1323 11.313V1.41381H53.3343Z" fill="#FFF"/>
<path d="M76.8701 16.2629C76.4661 17.071 75.86 17.7781 75.1529 18.2832C74.4458 18.7882 73.5367 19.1923 72.4256 19.4953C71.3145 19.7984 70.2033 19.8994 68.8902 19.8994C68.1831 19.8994 67.476 19.8994 66.7689 19.7984C66.0618 19.6974 65.3547 19.6974 64.6477 19.4953C64.4456 19.4953 64.3446 19.3943 64.2436 19.3943C64.1426 19.3943 64.0416 19.3943 63.8396 19.2933C63.3345 19.1923 62.9305 19.0913 62.6274 19.0913C62.3244 18.9903 62.0214 18.9903 61.8193 18.8893C61.7183 18.8893 61.5163 18.7882 61.4153 18.6872C61.3143 18.5862 61.2133 18.3842 61.2133 18.2832L60.8092 13.6366C60.8092 13.3336 60.9102 13.1316 61.1122 12.9295C61.3143 12.7275 61.6173 12.7275 61.8193 12.9295C62.6274 13.3336 63.7386 13.7376 65.1527 14.2427C66.5669 14.7478 67.8801 14.9498 69.0922 14.9498C69.7993 14.9498 70.4054 14.8488 70.8094 14.6468C71.2135 14.4447 71.5165 14.2427 71.5165 13.8387C71.5165 13.6366 71.4155 13.4346 71.1124 13.3336C70.7084 13.0306 69.6983 12.8285 68.2841 12.5255C65.4558 11.9194 63.5365 11.2123 62.4254 10.3032C61.2133 9.29311 60.6072 7.97996 60.6072 6.26275C60.6072 4.24251 61.3143 2.72733 62.7284 1.61619C64.1426 0.606072 66.1628 0 68.7892 0C69.9003 0 71.1124 0.101012 72.4256 0.303036C73.0317 0.404048 73.5367 0.50506 74.0418 0.606073C74.5469 0.707085 74.8499 0.808097 75.1529 0.909109C75.2539 0.909109 75.3549 1.01012 75.456 1.11113C75.557 1.21215 75.658 1.41417 75.658 1.51518L76.163 5.75769C76.163 6.06073 76.062 6.26275 75.86 6.46477C75.658 6.6668 75.3549 6.6668 75.1529 6.46477C74.6479 6.26275 74.1428 5.95971 73.5367 5.75769C73.0317 5.55567 72.4256 5.35364 71.8195 5.15162C70.6074 4.84858 69.5973 4.64656 68.5871 4.64656C67.8801 4.64656 67.274 4.74757 66.8699 4.84858C66.4659 4.94959 66.2639 5.15162 66.2639 5.45465C66.2639 5.75769 66.4659 5.95971 66.8699 6.06073C67.274 6.16174 67.678 6.36376 68.1831 6.46477C68.6881 6.6668 69.3952 6.76781 70.1023 6.86882C72.7286 7.37388 74.5469 8.08097 75.456 9.09109C76.5671 10.1012 77.0722 11.4144 77.0722 13.0306C77.4762 14.5457 77.2742 15.4548 76.8701 16.2629Z" fill="#FFF"/>
<path d="M79.2945 19.6975C79.0925 19.6975 78.8904 19.5965 78.7894 19.4955C78.6884 19.3945 78.5874 19.1925 78.5874 18.9905V1.41436C78.5874 1.21234 78.6884 1.01031 78.7894 0.9093C78.8904 0.808287 79.0925 0.707275 79.2945 0.707275H93.4362C93.6382 0.707275 93.8402 0.808287 93.9412 0.9093C94.0423 1.01031 94.1433 1.21234 94.1433 1.41436V4.94978C94.1433 5.15181 94.0423 5.35383 93.9412 5.45484C93.8402 5.55586 93.6382 5.65687 93.4362 5.65687H85.2542V7.5761H92.224C92.4261 7.5761 92.6281 7.67711 92.7291 7.77812C92.8301 7.87913 92.9311 8.08116 92.9311 8.28318V11.8186C92.9311 12.0206 92.8301 12.2227 92.7291 12.3237C92.6281 12.4247 92.4261 12.5257 92.224 12.5257H85.2542V14.5459H94.0423C94.2443 14.5459 94.4463 14.6469 94.5473 14.748C94.6483 14.849 94.7493 15.051 94.7493 15.253V18.7884C94.7493 18.9905 94.6483 19.1925 94.5473 19.2935C94.4463 19.3945 94.2443 19.4955 94.0423 19.4955H79.2945V19.6975Z" fill="#FFF"/>
<path d="M102.527 14.0409H111.719C111.922 14.0409 112.124 14.1419 112.225 14.2429C112.326 14.3439 112.427 14.5459 112.427 14.748V18.8895C112.427 19.0915 112.326 19.2935 112.225 19.3945C112.124 19.4955 111.922 19.5965 111.719 19.5965H96.5677C96.3657 19.5965 96.1636 19.4955 96.0626 19.3945C95.9616 19.2935 95.8606 19.0915 95.8606 18.8895V1.41436C95.8606 1.21234 95.9616 1.01031 96.0626 0.9093C96.1636 0.808287 96.3657 0.707275 96.5677 0.707275H101.82C102.022 0.707275 102.224 0.808287 102.325 0.9093C102.426 1.01031 102.527 1.21234 102.527 1.41436V14.0409Z" fill="#FFF"/>
<path d="M128.891 0.707275C129.194 0.707275 129.497 0.808287 129.599 1.11132C129.7 1.41436 129.7 1.61638 129.497 1.91942L121.012 12.1216V18.9905C121.012 19.1925 120.911 19.3945 120.81 19.4955C120.709 19.5965 120.507 19.6975 120.305 19.6975H114.851C114.649 19.6975 114.447 19.5965 114.346 19.4955C114.245 19.3945 114.144 19.1925 114.144 18.9905V12.1216L105.659 1.91942C105.457 1.61638 105.356 1.41436 105.558 1.11132C105.659 0.808287 105.962 0.707275 106.265 0.707275H112.527C112.628 0.707275 112.729 0.707275 112.831 0.808287C112.932 0.9093 113.033 0.9093 113.134 1.01031L118.083 7.07104L122.528 1.01031C122.528 0.9093 122.629 0.808287 122.831 0.808287C122.932 0.707275 123.134 0.707275 123.134 0.707275H128.891Z" fill="#FFF"/>
<script xmlns=""/></svg>